<svg width="19" height="17" viewBox="0 0 19 17" fill="none" xmlns="http://www.w3.org/2000/svg">
<path fill-rule="evenodd" clip-rule="evenodd" d="M14.817 2.9889C14.464 2.4809 13.52 1.7669 11.991 2.0749C11.099 2.2539 10.566 2.6949 10.227 3.2769C9.866 3.8969 9.691 4.7399 9.691 5.7209C9.691 5.98612 9.58564 6.24047 9.3981 6.42801C9.21057 6.61555 8.95621 6.7209 8.691 6.7209C6.325 6.7209 4.073 6.0179 2.178 4.1169C2.03493 4.8882 1.97858 5.67308 2.01 6.4569C2.063 7.5429 2.322 8.6319 2.937 9.5649C3.542 10.4819 4.537 11.3219 6.201 11.8499C6.36405 11.9016 6.51111 11.9943 6.62811 12.1191C6.74512 12.2439 6.82816 12.3966 6.86929 12.5626C6.91042 12.7287 6.90828 12.9025 6.86306 13.0675C6.81783 13.2324 6.73105 13.383 6.611 13.5049C6.07799 14.0516 5.47392 14.5242 4.815 14.9099C5.875 15.0199 6.897 15.0279 7.845 14.9419C9.765 14.7679 11.294 14.2189 12.25 13.4419C14.263 11.8099 15.34 9.3759 15.14 5.2979C15.106 4.6279 15.753 3.9049 16.065 3.3559C15.594 3.4439 15.122 3.4279 14.817 2.9889ZM1.594 0.983904C1.77505 0.962863 1.95841 0.991706 2.12426 1.06732C2.29011 1.14293 2.43214 1.26243 2.535 1.4129C4.011 3.5719 5.783 4.4699 7.75 4.6739C7.846 3.8329 8.073 3.0019 8.5 2.2699C9.126 1.1959 10.144 0.405904 11.598 0.113904C13.608 -0.290096 15.138 0.437904 16.025 1.3289L17.817 0.993904C18.0045 0.958768 18.1982 0.978008 18.3751 1.04935C18.5521 1.1207 18.7049 1.24117 18.8156 1.39655C18.9263 1.55193 18.9902 1.73574 18.9999 1.92628C19.0095 2.11682 18.9645 2.30614 18.87 2.4719L17.15 5.4939C17.307 9.8549 16.095 12.8989 13.511 14.9959C12.141 16.1079 10.179 16.7389 8.026 16.9339C5.856 17.1299 3.403 16.8929 0.964998 16.1809C0.75669 16.1201 0.573798 15.9933 0.443924 15.8194C0.314049 15.6456 0.244239 15.4343 0.245029 15.2173C0.245819 15.0003 0.317167 14.7894 0.448304 14.6166C0.579442 14.4437 0.763253 14.3181 0.971998 14.2589C2.198 13.9099 3.132 13.6089 3.975 13.0819C2.776 12.4459 1.893 11.6139 1.268 10.6659C0.399998 9.34791 0.0779978 7.8779 0.0139978 6.5529C-0.0500022 5.2279 0.140998 3.9999 0.342998 3.1149C0.457998 2.6099 0.591998 2.1039 0.776998 1.6199C0.842254 1.44929 0.952995 1.29982 1.0972 1.1877C1.24141 1.07558 1.41257 1.0051 1.594 0.983904Z" fill="black"/>
</svg>
